<svg xmlns="http://www.w3.org/2000/svg" viewBox="0 0 1200 500" width="1200" height="500">
  <defs>
    <linearGradient id="e1" x1="0" y1="0" x2="0" y2="1">
      <stop offset="0%" stop-color="#1e293b"/>
      <stop offset="100%" stop-color="#0f172a"/>
    </linearGradient>
  </defs>
  <rect width="1200" height="500" fill="url(#e1)"/>
  <!-- Buildings -->
  <g fill="#334155">
    <rect x="200" y="200" width="120" height="250"/>
    <rect x="340" y="150" width="150" height="300"/>
    <rect x="510" y="180" width="100" height="270"/>
    <rect x="630" y="120" width="180" height="330"/>
    <rect x="830" y="210" width="130" height="240"/>
  </g>
  <!-- Windows -->
  <g fill="#facc15" opacity="0.8">
    <rect x="220" y="220" width="12" height="15"/>
    <rect x="250" y="220" width="12" height="15"/>
    <rect x="280" y="220" width="12" height="15"/>
    <rect x="220" y="260" width="12" height="15"/>
    <rect x="250" y="260" width="12" height="15"/>
    <rect x="280" y="260" width="12" height="15"/>
    <rect x="360" y="180" width="14" height="18"/>
    <rect x="395" y="180" width="14" height="18"/>
    <rect x="430" y="180" width="14" height="18"/>
    <rect x="465" y="180" width="14" height="18"/>
    <rect x="660" y="160" width="16" height="20"/>
    <rect x="700" y="160" width="16" height="20"/>
    <rect x="740" y="160" width="16" height="20"/>
    <rect x="780" y="160" width="16" height="20"/>
  </g>
  <text x="600" y="70" text-anchor="middle" font-family="Inter, sans-serif" font-size="24" fill="#cbd5e1" font-weight="700">Mon entreprise de stage</text>
</svg>
