<svg xmlns="http://www.w3.org/2000/svg" viewBox="0 0 800 450" width="800" height="450">
  <defs>
    <linearGradient id="ad1" x1="0" y1="0" x2="1" y2="1">
      <stop offset="0%" stop-color="#ede9fe"/>
      <stop offset="100%" stop-color="#e0e7ff"/>
    </linearGradient>
  </defs>
  <rect width="800" height="450" fill="url(#ad1)"/>
  <!-- Arbre AD -->
  <g stroke="#6366f1" stroke-width="2" fill="none">
    <line x1="400" y1="110" x2="250" y2="200"/>
    <line x1="400" y1="110" x2="400" y2="200"/>
    <line x1="400" y1="110" x2="550" y2="200"/>
    <line x1="250" y1="240" x2="200" y2="310"/>
    <line x1="250" y1="240" x2="300" y2="310"/>
    <line x1="550" y1="240" x2="500" y2="310"/>
    <line x1="550" y1="240" x2="600" y2="310"/>
  </g>
  <g fill="#6366f1">
    <rect x="370" y="80" width="60" height="40" rx="4"/>
    <rect x="220" y="200" width="60" height="40" rx="4"/>
    <rect x="370" y="200" width="60" height="40" rx="4"/>
    <rect x="520" y="200" width="60" height="40" rx="4"/>
  </g>
  <g fill="#0ea5e9">
    <circle cx="200" cy="325" r="15"/>
    <circle cx="300" cy="325" r="15"/>
    <circle cx="500" cy="325" r="15"/>
    <circle cx="600" cy="325" r="15"/>
  </g>
  <text x="400" y="400" text-anchor="middle" font-family="Inter, sans-serif" font-size="20" fill="#64748b" font-weight="600">Active Directory & GPO</text>
</svg>
